<svg width="1600" height="420" viewBox="0 0 1600 420" fill="none" xmlns="http://www.w3.org/2000/svg">
  <defs>
    <linearGradient id="bg" x1="0" y1="0" x2="1600" y2="420" gradientUnits="userSpaceOnUse">
      <stop offset="0%" stop-color="#0F172A" />
      <stop offset="58%" stop-color="#111827" />
      <stop offset="100%" stop-color="#1F2937" />
    </linearGradient>
    <linearGradient id="accent" x1="220" y1="80" x2="1500" y2="360" gradientUnits="userSpaceOnUse">
      <stop offset="0%" stop-color="#22C55E" stop-opacity="0.95" />
      <stop offset="50%" stop-color="#38BDF8" stop-opacity="0.85" />
      <stop offset="100%" stop-color="#F59E0B" stop-opacity="0.9" />
    </linearGradient>
    <filter id="blur" x="0" y="0" width="1600" height="420" filterUnits="userSpaceOnUse" color-interpolation-filters="sRGB">
      <feGaussianBlur stdDeviation="24" />
    </filter>
  </defs>

  <rect width="1600" height="420" rx="36" fill="url(#bg)" />

  <g filter="url(#blur)" opacity="0.65">
    <circle cx="1260" cy="110" r="100" fill="#38BDF8" fill-opacity="0.25" />
    <circle cx="320" cy="330" r="140" fill="#22C55E" fill-opacity="0.18" />
    <circle cx="1420" cy="290" r="90" fill="#F59E0B" fill-opacity="0.14" />
  </g>

  <path d="M0 320C180 260 290 260 430 310C590 368 740 380 910 328C1100 270 1270 250 1600 330V420H0V320Z" fill="url(#accent)" fill-opacity="0.2" />
  <path d="M0 345C190 285 320 284 452 330C610 382 750 392 925 340C1116 282 1260 270 1600 347" stroke="url(#accent)" stroke-width="4" stroke-linecap="round" opacity="0.8" />

  <g transform="translate(92 88)">
    <rect x="0" y="0" width="134" height="134" rx="28" fill="#0B1220" fill-opacity="0.88" stroke="url(#accent)" stroke-width="2" />
    <path d="M34 48H100" stroke="#F8FAFC" stroke-width="8" stroke-linecap="round" />
    <path d="M34 74H84" stroke="#38BDF8" stroke-width="8" stroke-linecap="round" />
    <path d="M34 100H66" stroke="#22C55E" stroke-width="8" stroke-linecap="round" />
    <circle cx="106" cy="100" r="10" fill="#F59E0B" />
  </g>

  <text x="260" y="155" fill="#F8FAFC" font-size="72" font-family="Segoe UI, Arial, sans-serif" font-weight="700" letter-spacing="0.5">Code War DSA</text>
  <text x="260" y="216" fill="#CBD5E1" font-size="28" font-family="Segoe UI, Arial, sans-serif" font-weight="400">Daily DSA practice, clean solutions, and visible progress.</text>
  <text x="260" y="262" fill="#94A3B8" font-size="22" font-family="Segoe UI, Arial, sans-serif">Build patterns. Track streaks. Review mistakes. Repeat.</text>

  <g transform="translate(1180 88)">
    <rect x="0" y="0" width="286" height="66" rx="20" fill="#0B1220" fill-opacity="0.82" stroke="#334155" stroke-width="1.5" />
    <text x="28" y="42" fill="#E2E8F0" font-size="24" font-family="Segoe UI, Arial, sans-serif">Arrays  -  Graphs  -  DP</text>
  </g>
</svg>
